<?xml version="1.0" encoding="utf-8"?>
<!-- Generator: Adobe Illustrator 16.0.0, SVG Export Plug-In . SVG Version: 6.00 Build 0)  -->
<!DOCTYPE svg PUBLIC "-//W3C//DTD SVG 1.1//EN" "http://www.w3.org/Graphics/SVG/1.1/DTD/svg11.dtd">
<svg version="1.1" id="Layer_1" xmlns="http://www.w3.org/2000/svg" xmlns:xlink="http://www.w3.org/1999/xlink" x="0px" y="0px"
	 width="59.807px" height="16.398px" viewBox="0 0 59.807 16.398" enable-background="new 0 0 59.807 16.398" xml:space="preserve">
<path fill="#B22B2B" d="M31.164,9.47H49.26l-1.217,2.558c-0.043,0.094-0.025,0.205,0.047,0.28c0.074,0.073,0.186,0.093,0.281,0.05
	l7.668-3.543c0.086-0.04,0.143-0.127,0.145-0.221c0.002-0.095-0.053-0.182-0.137-0.225l-7.67-3.836
	c-0.092-0.047-0.203-0.029-0.279,0.041C48.023,4.645,48,4.754,48.039,4.85l1.213,2.887H14.133l-1.65-1.926
	c-0.047-0.057-0.115-0.087-0.188-0.087H8.303C8.191,5.713,8.08,5.707,7.961,5.707L7.625,5.709c-0.342,0-0.844-0.018-1.238-0.168
	c-0.41-0.156-0.602-0.413-0.602-0.809c0-0.777,0.334-1.098,0.797-1.539c0.105-0.1,0.213-0.205,0.322-0.316
	c0.066-0.07,0.086-0.174,0.051-0.264c-0.037-0.09-0.123-0.15-0.221-0.154L6.699,2.457C6.674,2.455,6.646,2.453,6.617,2.453
	c-1.494,0-2.711,1.408-2.711,3.141c0,1.219,0.605,2.293,1.502,2.812c-1.045,0.438-1.793,1.598-1.793,2.955
	c0,1.732,1.215,3.142,2.711,3.142c0.029,0,0.059-0.003,0.088-0.005l0.033-0.003c0.096-0.004,0.18-0.065,0.217-0.155
	c0.035-0.09,0.016-0.191-0.051-0.262c-0.109-0.112-0.217-0.217-0.322-0.316c-0.463-0.442-0.797-0.763-0.797-1.543
	c0-0.664,0.584-0.973,1.838-0.973l0.338,0.003c0.258,0,0.518-0.029,0.795-0.091h3.83c0.07,0,0.137-0.029,0.184-0.082l1.439-1.606
	h13.328H31.164z"/>
</svg>
